<svg width="255" height="255" viewBox="0 0 255 255" fill="none" xmlns="http://www.w3.org/2000/svg">
<path fill-rule="evenodd" clip-rule="evenodd" d="M127.5 7.96875C131.901 7.96875 135.469 11.5365 135.469 15.9375V26.5625C135.469 30.9635 131.901 34.5312 127.5 34.5312C123.099 34.5312 119.531 30.9635 119.531 26.5625V15.9375C119.531 11.5365 123.099 7.96875 127.5 7.96875ZM46.4267 41.1142C49.5387 38.0022 54.5842 38.0022 57.6962 41.1142L64.0723 47.4902C67.1843 50.6022 67.1843 55.6478 64.0723 58.7598C60.9603 61.8717 55.9147 61.8717 52.8027 58.7598L46.4267 52.3837C43.3147 49.2717 43.3147 44.2262 46.4267 41.1142ZM208.576 41.1149C211.687 44.2273 211.687 49.2728 208.574 52.3844L202.197 58.7605C199.084 61.8721 194.039 61.8714 190.927 58.759C187.815 55.6467 187.816 50.6011 190.928 47.4895L197.306 41.1135C200.418 38.0019 205.464 38.0025 208.576 41.1149ZM55.7812 126.172C55.7812 84.8242 87.4426 50.4688 127.5 50.4688C167.557 50.4688 199.219 84.8242 199.219 126.172C199.219 148.419 190.114 168.522 175.503 182.422C170.724 186.969 167.194 190.328 164.694 192.763C163.444 193.981 162.497 194.923 161.804 195.641C161.459 195.998 161.201 196.274 161.015 196.481C160.839 196.677 160.771 196.763 160.771 196.763C158.542 199.686 158.164 200.311 157.941 200.842C157.709 201.393 157.516 202.155 156.953 205.873C156.744 207.253 156.719 209.666 156.719 216.484V216.8C156.719 220.75 156.719 224.205 156.476 227.05C156.219 230.064 155.645 233.146 154.044 236.094C152.279 239.341 149.708 242.098 146.542 244.04C143.612 245.837 140.526 246.483 137.571 246.768C134.829 247.032 131.521 247.032 127.841 247.031H127.159C123.479 247.032 120.171 247.032 117.429 246.768C114.474 246.483 111.388 245.837 108.458 244.04C105.292 242.098 102.721 239.341 100.956 236.094C99.3546 233.146 98.7806 230.064 98.5236 227.05C98.2809 224.205 98.2811 220.75 98.2812 216.8V216.484C98.2812 209.666 98.2563 207.253 98.0473 205.873C97.4844 202.155 97.2908 201.393 97.0589 200.842C96.8356 200.311 96.455 199.682 94.2257 196.759C94.2257 196.759 94.1608 196.677 93.9851 196.481C93.7986 196.274 93.5411 195.998 93.196 195.641C92.5031 194.923 91.5564 193.981 90.3064 192.763C87.8064 190.328 84.2757 186.969 79.4968 182.422C64.8865 168.522 55.7812 148.419 55.7812 126.172ZM13.2812 122.188C13.2812 117.786 16.849 114.219 21.25 114.219H31.875C36.276 114.219 39.8438 117.786 39.8438 122.188C39.8438 126.589 36.276 130.156 31.875 130.156H21.25C16.849 130.156 13.2812 126.589 13.2812 122.188ZM215.156 122.188C215.156 117.786 218.724 114.219 223.125 114.219H233.75C238.151 114.219 241.719 117.786 241.719 122.188C241.719 126.589 238.151 130.156 233.75 130.156H223.125C218.724 130.156 215.156 126.589 215.156 122.188Z" fill="white"/>
</svg>
